%TF.GenerationSoftware,KiCad,Pcbnew,(6.0.7-1)-1*%
%TF.CreationDate,2023-02-09T22:12:39-08:00*%
%TF.ProjectId,MiniProject,4d696e69-5072-46f6-9a65-63742e6b6963,rev?*%
%TF.SameCoordinates,Original*%
%TF.FileFunction,Copper,L1,Top*%
%TF.FilePolarity,Positive*%
%FSLAX46Y46*%
G04 Gerber Fmt 4.6, Leading zero omitted, Abs format (unit mm)*
G04 Created by KiCad (PCBNEW (6.0.7-1)-1) date 2023-02-09 22:12:39*
%MOMM*%
%LPD*%
G01*
G04 APERTURE LIST*
G04 Aperture macros list*
%AMRoundRect*
0 Rectangle with rounded corners*
0 $1 Rounding radius*
0 $2 $3 $4 $5 $6 $7 $8 $9 X,Y pos of 4 corners*
0 Add a 4 corners polygon primitive as box body*
4,1,4,$2,$3,$4,$5,$6,$7,$8,$9,$2,$3,0*
0 Add four circle primitives for the rounded corners*
1,1,$1+$1,$2,$3*
1,1,$1+$1,$4,$5*
1,1,$1+$1,$6,$7*
1,1,$1+$1,$8,$9*
0 Add four rect primitives between the rounded corners*
20,1,$1+$1,$2,$3,$4,$5,0*
20,1,$1+$1,$4,$5,$6,$7,0*
20,1,$1+$1,$6,$7,$8,$9,0*
20,1,$1+$1,$8,$9,$2,$3,0*%
G04 Aperture macros list end*
%TA.AperFunction,SMDPad,CuDef*%
%ADD10RoundRect,0.218750X-0.218750X-0.256250X0.218750X-0.256250X0.218750X0.256250X-0.218750X0.256250X0*%
%TD*%
%TA.AperFunction,SMDPad,CuDef*%
%ADD11RoundRect,0.200000X-0.200000X-0.275000X0.200000X-0.275000X0.200000X0.275000X-0.200000X0.275000X0*%
%TD*%
%TA.AperFunction,SMDPad,CuDef*%
%ADD12R,2.450000X1.000000*%
%TD*%
%TA.AperFunction,SMDPad,CuDef*%
%ADD13R,1.000000X2.450000*%
%TD*%
%TA.AperFunction,SMDPad,CuDef*%
%ADD14RoundRect,0.225000X-0.250000X0.225000X-0.250000X-0.225000X0.250000X-0.225000X0.250000X0.225000X0*%
%TD*%
%TA.AperFunction,SMDPad,CuDef*%
%ADD15RoundRect,0.218750X0.218750X0.256250X-0.218750X0.256250X-0.218750X-0.256250X0.218750X-0.256250X0*%
%TD*%
%TA.AperFunction,ComponentPad*%
%ADD16R,1.700000X1.700000*%
%TD*%
%TA.AperFunction,ComponentPad*%
%ADD17O,1.700000X1.700000*%
%TD*%
%TA.AperFunction,SMDPad,CuDef*%
%ADD18RoundRect,0.200000X0.275000X-0.200000X0.275000X0.200000X-0.275000X0.200000X-0.275000X-0.200000X0*%
%TD*%
%TA.AperFunction,ViaPad*%
%ADD19C,0.800000*%
%TD*%
%TA.AperFunction,Conductor*%
%ADD20C,0.250000*%
%TD*%
G04 APERTURE END LIST*
D10*
%TO.P,BLUE1,1,K*%
%TO.N,GND*%
X157962500Y-121666000D03*
%TO.P,BLUE1,2,A*%
%TO.N,Net-(R1-Pad1)*%
X159537500Y-121666000D03*
%TD*%
D11*
%TO.P,R4,1*%
%TO.N,Net-(R4-Pad1)*%
X169355000Y-101981000D03*
%TO.P,R4,2*%
%TO.N,/SPICLK_Arduino*%
X171005000Y-101981000D03*
%TD*%
D12*
%TO.P,U1,1,EXTON*%
%TO.N,/EXTON*%
X154100000Y-99920000D03*
%TO.P,U1,2,WAKEUP*%
%TO.N,/WAKEUP*%
X154100000Y-101320000D03*
%TO.P,U1,3,~{RST}*%
%TO.N,/RST*%
X154100000Y-102720000D03*
%TO.P,U1,4,GPIO7/SYNC*%
%TO.N,/SYNC*%
X154100000Y-104120000D03*
%TO.P,U1,5,VDD1*%
%TO.N,+3.3V*%
X154100000Y-105520000D03*
%TO.P,U1,6,VDD3V3*%
X154100000Y-106920000D03*
%TO.P,U1,7,VDD3V3*%
X154100000Y-108320000D03*
%TO.P,U1,8,VSS*%
%TO.N,GND*%
X154100000Y-109720000D03*
D13*
%TO.P,U1,9,GPIO6/EXTRXE/SPIPHA*%
%TO.N,/SPIPHA*%
X155495000Y-112015000D03*
%TO.P,U1,10,GPIO5/EXTTXE/SPIPOL*%
%TO.N,/SPIPOL*%
X156895000Y-112015000D03*
%TO.P,U1,11,GPIO4*%
%TO.N,/GPIO4*%
X158295000Y-112015000D03*
%TO.P,U1,12,GPIO3/TXLED*%
%TO.N,Net-(R1-Pad2)*%
X159695000Y-112015000D03*
%TO.P,U1,13,GPIO2/RXLED*%
%TO.N,Net-(R2-Pad2)*%
X161095000Y-112015000D03*
%TO.P,U1,14,GPIO1/SFDLED*%
%TO.N,/GPIO1*%
X162495000Y-112015000D03*
%TO.P,U1,15,GPIO0/RXOKLED*%
%TO.N,/GPIO0*%
X163895000Y-112015000D03*
%TO.P,U1,16,VSS*%
%TO.N,GND*%
X165295000Y-112015000D03*
D12*
%TO.P,U1,17,~{SPICS}*%
%TO.N,Net-(R3-Pad1)*%
X166690000Y-109720000D03*
%TO.P,U1,18,SPIMOSI*%
%TO.N,Net-(R6-Pad1)*%
X166690000Y-108320000D03*
%TO.P,U1,19,SPIMISO*%
%TO.N,Net-(R5-Pad1)*%
X166690000Y-106920000D03*
%TO.P,U1,20,SPICLK*%
%TO.N,Net-(R4-Pad1)*%
X166690000Y-105520000D03*
%TO.P,U1,21,VSS*%
%TO.N,GND*%
X166690000Y-104120000D03*
%TO.P,U1,22,GPIO8/IRQ*%
%TO.N,/IRQ*%
X166690000Y-102720000D03*
%TO.P,U1,23,VSS*%
%TO.N,GND*%
X166690000Y-101320000D03*
%TO.P,U1,24,VSS*%
X166690000Y-99920000D03*
%TD*%
D14*
%TO.P,C1,1*%
%TO.N,+3.3V*%
X149860000Y-108445000D03*
%TO.P,C1,2*%
%TO.N,GND*%
X149860000Y-109995000D03*
%TD*%
D15*
%TO.P,ORNG1,1,K*%
%TO.N,GND*%
X162712500Y-121666000D03*
%TO.P,ORNG1,2,A*%
%TO.N,Net-(ORNG1-Pad2)*%
X161137500Y-121666000D03*
%TD*%
D16*
%TO.P,J1,1,Pin_1*%
%TO.N,/IRQ*%
X175260000Y-99060000D03*
D17*
%TO.P,J1,2,Pin_2*%
%TO.N,/SPICLK_Arduino*%
X175260000Y-101600000D03*
%TO.P,J1,3,Pin_3*%
%TO.N,/SPIMISO_Arduino*%
X175260000Y-104140000D03*
%TO.P,J1,4,Pin_4*%
%TO.N,/SPIMOSI_Arduino*%
X175260000Y-106680000D03*
%TO.P,J1,5,Pin_5*%
%TO.N,/SPICSn_Arduino*%
X175260000Y-109220000D03*
%TO.P,J1,6,Pin_6*%
%TO.N,/GPIO0*%
X175260000Y-111760000D03*
%TO.P,J1,7,Pin_7*%
%TO.N,/GPIO1*%
X175260000Y-114300000D03*
%TO.P,J1,8,Pin_8*%
%TO.N,GND*%
X175260000Y-116840000D03*
%TD*%
D18*
%TO.P,R1,1*%
%TO.N,Net-(R1-Pad1)*%
X159512000Y-119825000D03*
%TO.P,R1,2*%
%TO.N,Net-(R1-Pad2)*%
X159512000Y-118175000D03*
%TD*%
D16*
%TO.P,J0,1,Pin_1*%
%TO.N,/EXTON*%
X145000000Y-99060000D03*
D17*
%TO.P,J0,2,Pin_2*%
%TO.N,/WAKEUP*%
X145000000Y-101600000D03*
%TO.P,J0,3,Pin_3*%
%TO.N,/RST*%
X145000000Y-104140000D03*
%TO.P,J0,4,Pin_4*%
%TO.N,/SYNC*%
X145000000Y-106680000D03*
%TO.P,J0,5,Pin_5*%
%TO.N,+3.3V*%
X145000000Y-109220000D03*
%TO.P,J0,6,Pin_6*%
%TO.N,/SPIPHA*%
X145000000Y-111760000D03*
%TO.P,J0,7,Pin_7*%
%TO.N,/SPIPOL*%
X145000000Y-114300000D03*
%TO.P,J0,8,Pin_8*%
%TO.N,/GPIO4*%
X145000000Y-116840000D03*
%TD*%
D18*
%TO.P,R2,1*%
%TO.N,Net-(ORNG1-Pad2)*%
X161163000Y-119825000D03*
%TO.P,R2,2*%
%TO.N,Net-(R2-Pad2)*%
X161163000Y-118175000D03*
%TD*%
D11*
%TO.P,R5,1*%
%TO.N,Net-(R5-Pad1)*%
X169355000Y-104902000D03*
%TO.P,R5,2*%
%TO.N,/SPIMISO_Arduino*%
X171005000Y-104902000D03*
%TD*%
%TO.P,R6,1*%
%TO.N,Net-(R6-Pad1)*%
X169355000Y-107823000D03*
%TO.P,R6,2*%
%TO.N,/SPIMOSI_Arduino*%
X171005000Y-107823000D03*
%TD*%
%TO.P,R3,1*%
%TO.N,Net-(R3-Pad1)*%
X169355000Y-110871000D03*
%TO.P,R3,2*%
%TO.N,/SPICSn_Arduino*%
X171005000Y-110871000D03*
%TD*%
D19*
%TO.N,GND*%
X164592000Y-104140000D03*
X157988000Y-120396000D03*
X167640000Y-112014000D03*
X164592000Y-99949000D03*
X162687000Y-120396000D03*
X149860000Y-111252000D03*
%TD*%
D20*
%TO.N,+3.3V*%
X149085000Y-109220000D02*
X149860000Y-108445000D01*
X154100000Y-106920000D02*
X154100000Y-105520000D01*
X154100000Y-108320000D02*
X154100000Y-106920000D01*
X149860000Y-108445000D02*
X149985000Y-108320000D01*
X145000000Y-109220000D02*
X149085000Y-109220000D01*
X149985000Y-108320000D02*
X154100000Y-108320000D01*
%TO.N,GND*%
X167639000Y-112015000D02*
X167640000Y-112014000D01*
X166690000Y-99920000D02*
X164621000Y-99920000D01*
X166690000Y-104120000D02*
X164612000Y-104120000D01*
X154100000Y-109720000D02*
X150135000Y-109720000D01*
X165295000Y-112015000D02*
X167639000Y-112015000D01*
X150135000Y-109720000D02*
X149860000Y-109995000D01*
X157962500Y-121666000D02*
X157962500Y-120421500D01*
X149860000Y-109995000D02*
X149860000Y-111252000D01*
X164621000Y-99920000D02*
X164592000Y-99949000D01*
X164612000Y-104120000D02*
X164592000Y-104140000D01*
X162712500Y-121666000D02*
X162712500Y-120421500D01*
X157962500Y-120421500D02*
X157988000Y-120396000D01*
X166690000Y-101320000D02*
X166690000Y-99920000D01*
X162712500Y-120421500D02*
X162687000Y-120396000D01*
%TO.N,/EXTON*%
X153240000Y-99060000D02*
X154100000Y-99920000D01*
X145000000Y-99060000D02*
X153240000Y-99060000D01*
%TO.N,/WAKEUP*%
X153820000Y-101600000D02*
X154100000Y-101320000D01*
X145000000Y-101600000D02*
X153820000Y-101600000D01*
%TO.N,/RST*%
X146420000Y-102720000D02*
X154100000Y-102720000D01*
X145000000Y-104140000D02*
X146420000Y-102720000D01*
%TO.N,/SYNC*%
X145000000Y-106680000D02*
X147560000Y-104120000D01*
X147560000Y-104120000D02*
X154100000Y-104120000D01*
%TO.N,/SPIPHA*%
X145255000Y-112015000D02*
X145000000Y-111760000D01*
X155495000Y-112015000D02*
X145255000Y-112015000D01*
%TO.N,/SPIPOL*%
X156895000Y-112015000D02*
X156895000Y-112990000D01*
X155585000Y-114300000D02*
X145000000Y-114300000D01*
X156895000Y-112990000D02*
X155585000Y-114300000D01*
%TO.N,/IRQ*%
X167665000Y-102720000D02*
X168529000Y-101856000D01*
X168529000Y-101589538D02*
X171058538Y-99060000D01*
X166690000Y-102720000D02*
X167665000Y-102720000D01*
X168529000Y-101856000D02*
X168529000Y-101589538D01*
X171058538Y-99060000D02*
X175260000Y-99060000D01*
%TO.N,/SPICLK_Arduino*%
X171005000Y-101981000D02*
X171386000Y-101600000D01*
X171386000Y-101600000D02*
X175260000Y-101600000D01*
%TO.N,/SPIMISO_Arduino*%
X171005000Y-104902000D02*
X171767000Y-104140000D01*
X171767000Y-104140000D02*
X175260000Y-104140000D01*
%TO.N,/SPIMOSI_Arduino*%
X174117000Y-107823000D02*
X175260000Y-106680000D01*
X171005000Y-107823000D02*
X174117000Y-107823000D01*
%TO.N,/SPICSn_Arduino*%
X171005000Y-110871000D02*
X173609000Y-110871000D01*
X173609000Y-110871000D02*
X175260000Y-109220000D01*
%TO.N,/GPIO0*%
X163895000Y-112015000D02*
X163895000Y-113490000D01*
X163970000Y-113565000D02*
X173455000Y-113565000D01*
X173455000Y-113565000D02*
X175260000Y-111760000D01*
X163895000Y-113490000D02*
X163970000Y-113565000D01*
%TO.N,/GPIO1*%
X163305000Y-114300000D02*
X175260000Y-114300000D01*
X162495000Y-113490000D02*
X163305000Y-114300000D01*
X162495000Y-112015000D02*
X162495000Y-113490000D01*
%TO.N,/GPIO4*%
X154445000Y-116840000D02*
X145000000Y-116840000D01*
X158295000Y-112015000D02*
X158295000Y-112990000D01*
X158295000Y-112990000D02*
X154445000Y-116840000D01*
%TO.N,Net-(ORNG1-Pad2)*%
X161163000Y-121640500D02*
X161137500Y-121666000D01*
X161163000Y-119825000D02*
X161163000Y-121640500D01*
%TO.N,Net-(R2-Pad2)*%
X161095000Y-112015000D02*
X161095000Y-118107000D01*
X161095000Y-118107000D02*
X161163000Y-118175000D01*
%TO.N,Net-(R3-Pad1)*%
X166690000Y-109720000D02*
X168204000Y-109720000D01*
X168204000Y-109720000D02*
X169355000Y-110871000D01*
%TO.N,Net-(R4-Pad1)*%
X168529000Y-102807000D02*
X169355000Y-101981000D01*
X166690000Y-105520000D02*
X168165000Y-105520000D01*
X168165000Y-105520000D02*
X168529000Y-105156000D01*
X168529000Y-105156000D02*
X168529000Y-102807000D01*
%TO.N,Net-(R6-Pad1)*%
X166690000Y-108320000D02*
X168858000Y-108320000D01*
X168858000Y-108320000D02*
X169355000Y-107823000D01*
%TO.N,Net-(R5-Pad1)*%
X168165000Y-106920000D02*
X169355000Y-105730000D01*
X166690000Y-106920000D02*
X168165000Y-106920000D01*
X169355000Y-105730000D02*
X169355000Y-104902000D01*
%TO.N,Net-(R1-Pad1)*%
X159512000Y-121640500D02*
X159537500Y-121666000D01*
X159512000Y-119825000D02*
X159512000Y-121640500D01*
%TO.N,Net-(R1-Pad2)*%
X159695000Y-117992000D02*
X159512000Y-118175000D01*
X159695000Y-112015000D02*
X159695000Y-117992000D01*
%TD*%
M02*
