%TF.GenerationSoftware,KiCad,Pcbnew,(6.0.7-1)-1*%
%TF.CreationDate,2023-02-09T22:12:40-08:00*%
%TF.ProjectId,MiniProject,4d696e69-5072-46f6-9a65-63742e6b6963,rev?*%
%TF.SameCoordinates,Original*%
%TF.FileFunction,Soldermask,Top*%
%TF.FilePolarity,Negative*%
%FSLAX46Y46*%
G04 Gerber Fmt 4.6, Leading zero omitted, Abs format (unit mm)*
G04 Created by KiCad (PCBNEW (6.0.7-1)-1) date 2023-02-09 22:12:40*
%MOMM*%
%LPD*%
G01*
G04 APERTURE LIST*
G04 Aperture macros list*
%AMRoundRect*
0 Rectangle with rounded corners*
0 $1 Rounding radius*
0 $2 $3 $4 $5 $6 $7 $8 $9 X,Y pos of 4 corners*
0 Add a 4 corners polygon primitive as box body*
4,1,4,$2,$3,$4,$5,$6,$7,$8,$9,$2,$3,0*
0 Add four circle primitives for the rounded corners*
1,1,$1+$1,$2,$3*
1,1,$1+$1,$4,$5*
1,1,$1+$1,$6,$7*
1,1,$1+$1,$8,$9*
0 Add four rect primitives between the rounded corners*
20,1,$1+$1,$2,$3,$4,$5,0*
20,1,$1+$1,$4,$5,$6,$7,0*
20,1,$1+$1,$6,$7,$8,$9,0*
20,1,$1+$1,$8,$9,$2,$3,0*%
G04 Aperture macros list end*
%ADD10C,2.200000*%
%ADD11RoundRect,0.218750X-0.218750X-0.256250X0.218750X-0.256250X0.218750X0.256250X-0.218750X0.256250X0*%
%ADD12RoundRect,0.200000X-0.200000X-0.275000X0.200000X-0.275000X0.200000X0.275000X-0.200000X0.275000X0*%
%ADD13R,2.450000X1.000000*%
%ADD14R,1.000000X2.450000*%
%ADD15RoundRect,0.225000X-0.250000X0.225000X-0.250000X-0.225000X0.250000X-0.225000X0.250000X0.225000X0*%
%ADD16RoundRect,0.218750X0.218750X0.256250X-0.218750X0.256250X-0.218750X-0.256250X0.218750X-0.256250X0*%
%ADD17R,1.700000X1.700000*%
%ADD18O,1.700000X1.700000*%
%ADD19RoundRect,0.200000X0.275000X-0.200000X0.275000X0.200000X-0.275000X0.200000X-0.275000X-0.200000X0*%
G04 APERTURE END LIST*
D10*
%TO.C,M2*%
X175260000Y-91440000D03*
%TD*%
D11*
%TO.C,BLUE1*%
X157962500Y-121666000D03*
X159537500Y-121666000D03*
%TD*%
D12*
%TO.C,R4*%
X169355000Y-101981000D03*
X171005000Y-101981000D03*
%TD*%
D10*
%TO.C,M2*%
X144780000Y-91440000D03*
%TD*%
D13*
%TO.C,U1*%
X154100000Y-99920000D03*
X154100000Y-101320000D03*
X154100000Y-102720000D03*
X154100000Y-104120000D03*
X154100000Y-105520000D03*
X154100000Y-106920000D03*
X154100000Y-108320000D03*
X154100000Y-109720000D03*
D14*
X155495000Y-112015000D03*
X156895000Y-112015000D03*
X158295000Y-112015000D03*
X159695000Y-112015000D03*
X161095000Y-112015000D03*
X162495000Y-112015000D03*
X163895000Y-112015000D03*
X165295000Y-112015000D03*
D13*
X166690000Y-109720000D03*
X166690000Y-108320000D03*
X166690000Y-106920000D03*
X166690000Y-105520000D03*
X166690000Y-104120000D03*
X166690000Y-102720000D03*
X166690000Y-101320000D03*
X166690000Y-99920000D03*
%TD*%
D10*
%TO.C,M2*%
X175260000Y-121920000D03*
%TD*%
D15*
%TO.C,C1*%
X149860000Y-108445000D03*
X149860000Y-109995000D03*
%TD*%
D16*
%TO.C,ORNG1*%
X162712500Y-121666000D03*
X161137500Y-121666000D03*
%TD*%
D10*
%TO.C,M2*%
X144780000Y-121920000D03*
%TD*%
D17*
%TO.C,J1*%
X175260000Y-99060000D03*
D18*
X175260000Y-101600000D03*
X175260000Y-104140000D03*
X175260000Y-106680000D03*
X175260000Y-109220000D03*
X175260000Y-111760000D03*
X175260000Y-114300000D03*
X175260000Y-116840000D03*
%TD*%
D19*
%TO.C,R1*%
X159512000Y-119825000D03*
X159512000Y-118175000D03*
%TD*%
D17*
%TO.C,J0*%
X145000000Y-99060000D03*
D18*
X145000000Y-101600000D03*
X145000000Y-104140000D03*
X145000000Y-106680000D03*
X145000000Y-109220000D03*
X145000000Y-111760000D03*
X145000000Y-114300000D03*
X145000000Y-116840000D03*
%TD*%
D19*
%TO.C,R2*%
X161163000Y-119825000D03*
X161163000Y-118175000D03*
%TD*%
D12*
%TO.C,R5*%
X169355000Y-104902000D03*
X171005000Y-104902000D03*
%TD*%
%TO.C,R6*%
X169355000Y-107823000D03*
X171005000Y-107823000D03*
%TD*%
%TO.C,R3*%
X169355000Y-110871000D03*
X171005000Y-110871000D03*
%TD*%
M02*
